<?xml version="1.0" standalone="no"?>
<!DOCTYPE svg PUBLIC "-//W3C//DTD SVG 20010904//EN"
 "http://www.w3.org/TR/2001/REC-SVG-20010904/DTD/svg10.dtd">
<svg version="1.0" xmlns="http://www.w3.org/2000/svg"
 width="225.000000pt" height="300.000000pt" viewBox="0 0 225.000000 300.000000"
 preserveAspectRatio="xMidYMid meet">

<g transform="translate(0.000000,300.000000) scale(0.100000,-0.100000)"
fill="#000000" stroke="none">
<path d="M0 2585 l0 -415 28 17 c15 9 34 23 43 30 21 17 32 4 94 -112 27 -49
68 -118 92 -153 46 -67 52 -85 28 -75 -9 3 -21 -1 -28 -10 -9 -11 -22 -13 -47
-9 l-35 6 30 6 c30 6 30 7 -25 32 -41 19 -70 44 -115 97 l-60 72 -3 -162 c-1
-89 -1 -163 1 -165 2 -2 25 0 50 5 29 5 47 5 47 -1 0 -5 4 -7 9 -4 5 4 46 -29
90 -71 76 -73 121 -100 121 -73 0 7 -6 10 -13 7 -19 -7 -38 39 -22 53 10 9 16
6 24 -9 6 -11 17 -18 24 -15 15 5 61 -131 51 -148 -4 -7 -2 -8 4 -4 7 4 12 2
12 -3 0 -6 3 -10 8 -8 4 1 9 -2 11 -8 2 -5 19 -20 37 -33 19 -12 34 -25 34
-28 0 -3 -4 -3 -10 1 -5 3 -16 -8 -25 -24 -30 -59 -11 -69 37 -20 22 21 34 27
41 20 8 -8 5 -15 -9 -25 -17 -13 -18 -15 -2 -21 9 -4 21 -5 25 -2 11 7 10 -55
-1 -72 -8 -12 -11 -10 -17 7 -5 12 -6 28 -3 36 3 7 -2 16 -10 19 -19 7 -21
-14 -6 -44 8 -14 7 -19 -2 -19 -21 0 -109 104 -143 168 -16 31 -34 60 -40 64
-5 4 -10 15 -10 25 0 10 -8 29 -18 43 -18 26 -24 11 -7 -21 8 -14 7 -19 -2
-19 -8 0 -9 -3 -3 -8 6 -4 22 -33 38 -65 15 -32 31 -56 36 -53 4 3 14 -14 21
-37 6 -23 18 -49 26 -58 8 -9 16 -30 18 -46 2 -17 14 -49 26 -73 12 -23 19
-45 16 -48 -3 -3 -39 27 -80 66 -41 40 -79 72 -86 72 -6 0 -8 5 -4 12 4 6 3 8
-4 4 -6 -3 -73 57 -151 136 l-141 143 0 -783 0 -782 64 0 63 0 6 37 c4 20 2
42 -4 49 -7 8 -7 14 1 19 6 3 7 11 4 17 -5 8 -1 9 10 5 14 -6 16 -3 11 13 -5
14 -2 20 9 20 9 0 17 3 17 8 1 4 3 16 5 27 6 44 22 109 23 98 2 -22 21 -14 21
8 0 12 -4 17 -11 13 -6 -3 -3 5 6 20 10 14 21 26 24 26 4 0 13 17 19 37 9 29
9 39 -1 46 -7 5 -4 6 10 2 18 -5 20 -3 16 16 -4 14 0 26 11 35 10 7 15 17 11
23 -3 6 0 11 8 11 7 0 25 17 38 37 13 21 31 38 39 38 9 0 14 8 12 20 -3 16 -1
17 9 8 9 -9 16 -7 30 11 10 13 23 35 29 50 11 30 44 35 90 11 16 -8 64 -18
106 -22 75 -6 76 -6 65 15 -15 28 -14 37 4 22 8 -6 19 -9 24 -5 7 3 8 0 5 -10
-6 -14 -3 -14 20 -4 37 17 32 29 -11 30 -62 3 -66 4 -126 32 -32 14 -56 31
-53 36 9 13 88 23 135 15 38 -6 40 -8 26 -24 -14 -15 -13 -17 15 -17 30 0 42
21 18 30 -8 3 -6 6 4 6 11 1 15 6 12 16 -5 12 -10 13 -20 4 -10 -8 -18 -7 -32
3 -11 7 -19 16 -18 21 0 4 -14 16 -33 28 -18 11 -31 23 -28 26 3 3 18 -4 33
-16 29 -23 49 -28 38 -10 -4 7 7 2 23 -10 21 -16 40 -21 64 -19 l34 4 -44 12
c-56 17 -49 24 9 10 46 -11 76 -28 50 -28 -8 0 3 -9 25 -20 47 -24 65 -25 66
-5 1 8 3 20 4 25 1 6 3 13 4 18 2 10 241 4 255 -7 17 -14 145 38 384 158 79
40 149 70 155 68 19 -6 -385 -205 -455 -223 -53 -14 -68 -22 -68 -37 0 -15 -3
-14 -26 8 -24 24 -30 25 -107 21 -45 -2 -91 0 -104 5 -16 6 -22 5 -20 -4 3
-18 15 -24 47 -22 16 1 27 -2 25 -6 -3 -4 1 -10 7 -13 7 -2 2 -4 -11 -3 -13 1
-26 -4 -29 -12 -2 -8 0 -11 5 -8 5 3 15 1 23 -5 13 -8 12 -9 -2 -5 -19 7 -45
-18 -28 -26 6 -3 5 -4 -2 -3 -7 2 -12 13 -11 25 2 11 -2 21 -7 21 -6 0 -10 -7
-10 -15 0 -8 -4 -15 -9 -15 -14 0 -6 -46 13 -75 10 -15 26 -25 41 -25 13 0 27
-4 30 -10 3 -5 17 -10 30 -10 30 0 39 -14 20 -30 -10 -9 -15 -9 -15 -1 0 22
-18 10 -23 -16 -8 -35 -24 -60 -32 -51 -4 4 -3 27 3 52 6 32 6 48 -1 53 -5 3
-7 1 -4 -4 8 -12 -20 -39 -30 -30 -3 4 0 13 6 21 11 13 8 15 -21 13 -31 -2
-33 0 -39 40 -7 52 -10 56 -41 48 -20 -5 -24 -11 -20 -30 2 -13 -1 -31 -6 -42
-8 -13 -7 -22 6 -36 15 -17 15 -17 -4 -11 -10 4 -21 11 -24 15 -3 4 -17 -1
-30 -13 -17 -14 -19 -18 -7 -14 11 3 16 2 12 -5 -4 -5 -15 -7 -25 -4 -20 6
-70 -13 -70 -28 0 -6 -3 -7 -6 -4 -4 3 -16 2 -27 -4 -15 -9 -25 -7 -48 10 -15
12 -36 21 -46 21 -14 -1 -13 -4 7 -16 14 -9 17 -13 7 -10 -73 23 -137 13 -81
-13 14 -6 22 -16 19 -21 -3 -5 0 -7 7 -5 8 3 22 -2 33 -11 17 -13 17 -15 3
-10 -10 3 -18 2 -18 -3 0 -5 -13 -15 -29 -23 -39 -19 -104 -103 -153 -198 -23
-46 -39 -65 -60 -73 -10 -3 -18 -16 -18 -27 0 -27 -46 -95 -55 -81 -3 6 -17
11 -30 11 -18 0 -23 -4 -18 -16 6 -17 -33 -64 -54 -64 -7 0 -13 -9 -13 -20 0
-20 7 -20 430 -20 270 0 430 4 430 10 0 5 10 15 23 21 18 9 20 9 10 -2 -7 -7
-13 -17 -13 -21 0 -4 266 -8 590 -8 l590 0 0 633 0 634 -62 -12 c-106 -21
-412 -86 -426 -90 -7 -3 -11 -1 -8 4 4 5 66 28 139 51 166 53 270 99 263 116
-6 16 19 44 39 44 8 0 16 4 20 9 3 6 -8 5 -27 -1 -75 -23 -81 -23 -73 3 8 26
14 31 87 81 45 31 47 35 48 81 0 26 -4 47 -9 47 -8 0 -63 -40 -110 -80 -13
-11 -28 -20 -34 -20 -5 0 -59 -49 -120 -109 -96 -93 -183 -171 -192 -171 -4 0
85 152 113 195 11 17 53 81 93 143 41 63 87 123 104 135 16 11 47 36 67 55
l38 36 25 -24 25 -23 0 631 0 632 -394 0 c-306 0 -395 -3 -399 -12 -4 -10 -6
-10 -6 0 -1 9 -153 12 -726 12 l-725 0 0 -415z m785 -111 c-14 -20 -25 -45
-25 -55 0 -11 -4 -19 -9 -19 -6 0 -6 12 -1 31 5 17 8 35 7 39 -1 4 2 8 6 9 4
0 15 7 23 16 25 25 25 17 -1 -21z m537 27 c32 -2 8 -31 -26 -31 -24 0 -27 3
-16 10 13 8 12 10 -2 10 -10 0 -18 4 -18 9 0 4 10 7 23 6 12 -1 30 -3 39 -4z
m-461 -31 c11 -6 19 -21 19 -36 0 -22 2 -23 20 -14 11 6 20 18 20 28 0 14 2
15 9 2 6 -8 7 -18 5 -22 -3 -4 2 -5 10 -2 9 3 16 1 16 -5 0 -6 -5 -11 -11 -11
-8 0 -9 -4 0 -13 6 -8 8 -17 4 -20 -3 -4 -3 -7 1 -7 3 0 11 12 16 26 7 17 15
24 25 20 8 -3 15 0 15 6 0 14 177 5 193 -11 18 -18 27 -13 38 19 6 17 15 30
21 30 5 0 6 -4 3 -10 -8 -13 8 -13 21 0 7 7 15 -1 24 -25 16 -41 40 -47 40
-10 0 16 -6 25 -15 25 -8 0 -15 5 -15 10 0 15 27 12 43 -5 13 -13 16 -11 21
10 4 16 11 22 21 19 14 -6 14 -33 0 -80 -5 -17 -2 -23 19 -28 14 -3 26 -13 26
-22 0 -13 2 -13 21 -1 21 15 25 15 169 -20 84 -21 104 -31 92 -46 -5 -7 -12
-25 -16 -42 -7 -29 -8 -29 -22 -11 -8 11 -14 28 -14 38 0 22 -69 42 -113 32
-18 -4 -41 -8 -52 -9 -13 -1 -22 -11 -26 -32 -3 -16 -16 -48 -29 -71 -21 -38
-22 -42 -6 -57 9 -9 16 -21 16 -26 0 -13 -24 -11 -38 3 -8 8 -12 9 -12 1 0 -6
5 -13 12 -15 10 -4 10 -13 0 -44 -11 -34 -10 -40 5 -49 9 -5 24 -18 34 -27 13
-12 20 -14 25 -6 4 7 2 14 -4 16 -20 6 -34 79 -21 104 l12 22 9 -23 c7 -19 11
-21 23 -11 22 18 19 27 -12 35 l-28 8 35 8 c44 10 60 5 60 -21 0 -11 6 -20 13
-20 19 0 55 33 50 46 -6 17 34 47 53 40 11 -4 15 -14 11 -32 -3 -16 1 -28 9
-31 21 -8 17 -21 -13 -54 -26 -27 -63 -39 -63 -20 0 4 -12 8 -27 7 -21 -1 -28
-6 -28 -21 0 -11 6 -19 13 -18 6 2 12 -4 12 -12 0 -21 24 -19 45 5 10 11 21
17 25 15 10 -6 -15 -91 -36 -122 -8 -13 -12 -28 -9 -34 4 -5 1 -8 -5 -7 -6 2
-32 -37 -58 -87 -48 -91 -82 -146 -82 -132 0 5 -5 5 -11 1 -8 -5 -8 -9 1 -14
9 -6 9 -13 1 -29 -7 -11 -10 -21 -8 -21 10 0 46 38 41 43 -3 3 7 19 22 35 52
52 82 91 75 98 -3 4 -1 4 6 0 7 -4 12 1 12 11 1 39 5 52 13 47 4 -3 8 0 8 7 0
7 3 9 6 6 4 -4 1 -13 -5 -21 -7 -8 -10 -20 -6 -25 3 -6 -5 -22 -19 -36 -15
-14 -26 -30 -26 -34 0 -4 -8 -17 -17 -29 -10 -12 -36 -46 -58 -76 -22 -30 -44
-55 -48 -56 -5 0 -5 5 -2 10 11 17 -7 11 -20 -7 -11 -15 -15 -15 -29 -4 -14
12 -16 10 -16 -17 0 -22 -4 -30 -13 -26 -8 3 -13 -4 -14 -18 -2 -18 0 -20 8
-8 7 11 8 6 3 -15 -9 -41 -12 -45 -29 -38 -9 3 -15 -1 -15 -8 0 -10 -3 -10
-12 -1 -8 8 -8 15 0 25 7 8 9 17 5 20 -11 12 -23 8 -23 -8 0 -17 -46 -39 -61
-29 -5 3 -7 21 -3 39 4 25 2 35 -10 42 -13 7 -15 15 -7 34 l9 24 10 -25 c9
-22 11 -23 17 -7 11 28 -4 67 -30 79 -14 6 -25 15 -25 20 0 5 4 6 10 3 6 -3 7
1 3 10 -3 9 -9 13 -12 8 -3 -4 -24 -9 -46 -11 -22 -2 -47 -9 -55 -16 -8 -8
-28 -18 -44 -23 -27 -8 -29 -12 -32 -78 -4 -95 -9 -118 -22 -123 -7 -2 -12 -8
-12 -13 0 -6 27 -8 64 -6 54 4 63 2 59 -11 -4 -10 -2 -13 8 -10 8 3 13 11 11
17 -1 8 2 9 10 5 7 -5 24 -7 37 -5 16 2 22 -1 19 -11 -3 -7 -13 -12 -23 -10
-13 3 -16 -1 -12 -12 8 -21 -32 -44 -44 -25 -4 7 -5 17 -2 23 6 9 2 8 -46 -12
-9 -3 -12 -1 -7 6 4 8 2 10 -8 6 -15 -6 -11 -34 5 -34 5 0 13 -8 16 -17 4 -9
16 -28 27 -41 11 -12 21 -39 22 -59 2 -20 5 -47 9 -60 4 -16 2 -22 -5 -18 -5
3 -10 -1 -10 -10 0 -9 5 -13 10 -10 13 8 13 -1 0 -26 -6 -10 -15 -19 -21 -19
-6 0 -7 5 -4 10 3 6 -1 13 -11 17 -16 6 -16 7 1 19 16 12 17 17 6 38 -8 13
-10 29 -7 35 4 6 0 11 -8 11 -10 0 -13 -6 -10 -15 5 -12 -2 -15 -33 -15 -45 0
-111 30 -105 48 2 7 -1 12 -8 12 -6 0 -8 5 -5 10 3 6 1 10 -5 10 -7 0 -10 6
-7 14 3 8 -3 26 -13 39 -11 13 -17 27 -13 30 3 3 3 14 -1 23 -6 15 -8 15 -24
2 -9 -9 -22 -14 -28 -11 -6 2 -14 -4 -18 -13 -6 -15 39 -86 86 -135 51 -55 88
-101 88 -111 0 -6 -9 -3 -21 8 -12 10 -23 18 -25 17 -13 -9 -22 0 -19 17 3 15
-27 48 -123 134 -175 157 -178 160 -199 146 -17 -11 -17 -11 0 -6 15 5 16 3 6
-15 -14 -28 -32 -10 -31 31 1 34 -5 38 -24 13 -12 -17 -14 -16 -36 6 -18 19
-18 22 -3 10 19 -13 19 -13 6 4 -8 9 -16 15 -19 13 -2 -3 -14 0 -26 6 -11 7
-25 11 -29 10 -5 -1 -6 2 -2 7 3 6 13 7 21 4 14 -5 15 -3 4 17 -8 15 -15 19
-22 12 -7 -7 -17 -8 -29 -2 -14 8 -16 16 -9 40 16 55 11 152 -11 188 -10 18
-19 38 -19 43 0 10 -82 161 -214 390 -36 64 -66 121 -66 127 0 17 153 63 162
49 4 -7 40 -99 79 -205 40 -105 74 -191 76 -189 1 2 -11 50 -28 106 -17 57
-28 109 -25 117 3 9 1 12 -4 9 -6 -4 -9 23 -6 76 3 85 12 101 51 97 38 -3 161
14 270 39 61 14 119 25 130 26 23 2 39 22 30 37 -9 14 -15 50 -9 50 3 0 14 -5
25 -10z m665 -22 c4 -6 8 -24 9 -40 2 -25 1 -27 -14 -16 -28 21 -40 39 -34 54
6 17 29 18 39 2z m507 -214 c18 -9 34 -18 36 -20 2 -2 -26 -57 -63 -122 -66
-119 -75 -145 -56 -157 13 -8 13 -45 1 -45 -5 0 -17 -7 -25 -16 -15 -14 -17
-14 -24 4 -7 19 -8 19 -25 -4 -17 -23 -17 -24 2 -24 11 0 23 -5 26 -10 4 -6
11 -8 17 -4 5 3 3 -8 -6 -24 -21 -40 -39 -52 -26 -18 11 30 4 32 -28 10 -23
-16 -33 -71 -9 -58 9 5 9 3 -1 -7 -7 -8 -18 -14 -25 -14 -6 0 -17 -10 -23 -23
-14 -29 -195 -224 -202 -218 -2 3 -14 -6 -24 -20 -25 -31 -19 -39 12 -17 27
19 70 26 70 12 0 -5 -12 -14 -27 -19 -16 -6 -38 -16 -51 -22 -19 -10 -26 -9
-40 7 -10 10 -11 14 -3 10 9 -5 12 -4 7 3 -3 6 -2 13 4 17 13 8 150 205 150
216 0 14 122 224 175 299 160 231 176 256 127 200 -74 -84 -188 -255 -409
-615 -102 -166 -98 -159 -86 -152 6 4 14 0 17 -9 5 -13 2 -15 -16 -11 -15 4
-36 -4 -68 -28 -26 -19 -51 -31 -55 -27 -5 4 -5 2 -2 -4 5 -10 -37 -56 -101
-109 l-24 -20 13 28 c7 15 14 25 17 22 6 -6 87 66 87 78 0 4 6 11 13 16 8 5
13 11 13 15 -3 19 0 27 8 21 12 -7 35 61 25 76 -4 7 -3 9 3 6 12 -8 23 14 23
44 0 35 33 15 43 -26 2 -11 3 -1 1 22 -2 28 1 45 12 54 18 15 196 274 355 517
65 100 121 182 125 182 3 0 19 -7 37 -16z m-200 -49 c-3 -9 -8 -14 -10 -11 -3
3 -2 9 2 15 9 16 15 13 8 -4z m-13 -42 c0 -23 -60 -127 -68 -119 -5 5 58 136
66 136 1 0 2 -8 2 -17z m-136 -268 c-4 -8 -11 -15 -16 -15 -6 0 -5 6 2 15 7 8
14 15 16 15 2 0 1 -7 -2 -15z m-1524 -5 c0 -5 -5 -10 -11 -10 -5 0 -7 5 -4 10
3 6 8 10 11 10 2 0 4 -4 4 -10z m-40 -72 c-1 -34 -3 -39 -11 -26 -8 15 -3 68
7 68 2 0 4 -19 4 -42z m1876 4 c-3 -2 -14 -1 -26 3 -17 6 -19 9 -9 22 11 13
14 13 26 -3 7 -10 11 -19 9 -22z m158 2 c10 -25 7 -27 -11 -13 -17 13 -17 12
-2 -11 16 -25 16 -25 -15 -24 -66 2 -67 2 -54 23 6 10 17 17 23 15 7 -3 18 2
25 11 16 19 26 19 34 -1z m-149 -63 c-3 -5 -1 -12 5 -16 18 -11 11 -25 -12
-25 -22 -1 -23 -1 -4 -15 11 -8 15 -15 9 -15 -6 0 -19 -3 -29 -7 -13 -5 -15
-3 -9 8 8 12 6 12 -8 0 -19 -15 -23 -26 -6 -16 6 4 5 -2 -3 -14 -18 -29 -42
-38 -27 -10 9 18 8 20 -13 17 -13 -2 -22 -6 -20 -10 1 -5 2 -20 2 -35 0 -21 3
-24 10 -13 16 26 19 5 5 -40 -13 -43 -14 -43 -14 -13 -1 17 -5 35 -11 38 -10
6 -14 -12 -11 -50 1 -14 -1 -16 -7 -7 -6 9 -16 10 -32 4 -23 -9 -23 -9 9 -20
36 -13 34 -25 -8 -47 -34 -17 -43 -11 -29 21 6 13 8 27 5 30 -9 10 -46 -38
-40 -52 6 -17 37 -23 59 -11 17 8 17 8 4 -5 -8 -8 -35 -20 -59 -27 -40 -12
-46 -11 -58 5 -12 16 -9 23 23 55 20 21 50 43 65 50 16 6 29 15 29 20 0 5 7 9
15 9 16 0 21 25 6 34 -5 3 -40 -23 -79 -59 -54 -50 -71 -61 -76 -49 -3 9 -11
12 -18 8 -7 -4 18 25 56 64 38 39 72 71 75 70 18 -2 31 3 31 13 0 5 -6 7 -12
3 -7 -4 -9 -3 -5 1 4 5 13 10 20 11 45 10 93 36 122 67 33 35 53 49 40 28z
m-1607 -123 c6 -23 7 -38 1 -38 -15 0 -32 47 -25 66 8 21 12 18 24 -28z m709
-114 c-3 -3 -12 -4 -19 -1 -8 3 -5 6 6 6 11 1 17 -2 13 -5z m60 0 c-3 -3 -12
-4 -19 -1 -8 3 -5 6 6 6 11 1 17 -2 13 -5z m19 -22 c-18 -16 -18 -16 -6 6 6
13 14 21 18 18 3 -4 -2 -14 -12 -24z m667 -90 c-20 -45 -38 -80 -40 -78 -3 2
12 41 33 85 20 45 39 80 40 78 2 -2 -12 -40 -33 -85z m-733 58 c0 -11 -2 -20
-4 -20 -2 0 -6 9 -9 20 -3 11 -1 20 4 20 5 0 9 -9 9 -20z m570 -9 c0 -6 -4
-13 -10 -16 -5 -3 -10 1 -10 9 0 9 5 16 10 16 6 0 10 -4 10 -9z m20 -42 c0 -6
-4 -7 -10 -4 -5 3 -10 11 -10 16 0 6 5 7 10 4 6 -3 10 -11 10 -16z m-49 -3
c-10 -12 -8 -14 11 -9 22 4 22 4 4 -11 -25 -20 -46 -5 -26 19 7 8 15 15 17 15
3 0 0 -6 -6 -14z m-1083 -33 c2 -20 -1 -24 -9 -16 -7 7 -9 19 -6 27 9 23 12
20 15 -11z m762 5 c0 -5 -4 -6 -10 -3 -5 3 -10 1 -10 -4 0 -6 7 -11 15 -11 21
0 19 -6 -14 -41 -18 -18 -28 -37 -24 -47 4 -13 3 -14 -5 -3 -7 10 -19 -1 -51
-45 l-41 -57 1 39 c2 58 12 97 28 102 10 3 11 -2 6 -18 -7 -23 -7 -23 19 -4
14 11 28 27 31 37 4 9 13 17 22 17 9 0 13 6 9 15 -3 8 -9 21 -12 29 -4 11 0
13 15 9 12 -3 21 -10 21 -15z m236 0 c18 -20 18 -21 1 -15 -10 4 -23 7 -28 7
-5 0 -9 7 -9 15 0 21 14 19 36 -7z m184 6 c0 -2 -9 -4 -20 -4 -11 0 -20 4 -20
9 0 5 9 7 20 4 11 -3 20 -7 20 -9z m-491 -11 c-21 -28 -23 -29 -16 -11 3 9 1
19 -6 22 -7 2 -1 5 12 5 21 1 22 -1 10 -16z m500 -14 c-24 -15 -30 -10 -11 9
9 10 19 14 21 9 2 -5 -3 -13 -10 -18z m-273 12 c-8 -12 13 -27 47 -35 16 -4
27 -2 27 4 0 18 30 11 32 -7 3 -45 -5 -79 -23 -95 -22 -18 -24 -39 -7 -56 9
-9 8 -16 -5 -30 -9 -10 -14 -21 -11 -24 3 -3 0 -9 -7 -14 -8 -5 -10 -3 -4 6 6
10 4 12 -8 7 -11 -4 -14 -2 -10 8 3 8 9 13 13 10 5 -3 11 -1 14 4 9 14 -20 21
-34 8 -10 -9 -11 -9 -6 0 3 6 2 14 -4 18 -13 8 -13 25 0 25 6 0 9 -5 8 -11 -2
-6 7 -13 20 -15 25 -4 30 11 7 20 -9 3 -12 12 -8 22 5 14 3 15 -17 4 -15 -8
-20 -8 -16 -1 4 6 2 11 -3 11 -10 0 -16 -21 -12 -42 0 -4 -6 -5 -14 -2 -8 4
-15 10 -15 16 0 5 -17 8 -37 6 -21 -2 -37 -7 -36 -13 2 -12 -26 -29 -34 -21
-4 3 -2 6 4 6 6 0 10 9 9 20 0 11 -5 19 -11 18 -11 -2 -45 -42 -45 -54 0 -4
-16 -22 -35 -41 -20 -19 -33 -38 -30 -43 3 -5 0 -12 -6 -16 -8 -4 -9 -3 -5 4
4 7 3 12 -3 12 -5 0 -8 8 -7 18 2 9 9 17 17 17 9 0 13 10 11 30 -2 26 9 41 90
117 51 47 97 86 101 87 4 0 15 7 23 16 16 16 39 21 30 6z m-831 -31 c10 -11
16 -20 13 -20 -3 0 -13 9 -23 20 -10 11 -16 20 -13 20 3 0 13 -9 23 -20z
m1055 11 c0 -14 -44 -21 -55 -9 -6 7 -6 9 0 6 6 -3 19 -2 30 3 11 4 21 8 23 8
1 1 2 -3 2 -8z m71 -10 c-7 -5 -11 -13 -9 -17 3 -5 2 -18 -3 -29 -6 -17 -8
-15 -8 11 -1 32 5 44 23 44 6 0 5 -4 -3 -9z m-1322 -79 c-2 -24 -2 -24 -6 -4
-2 12 -9 20 -14 17 -5 -3 -6 1 -3 9 9 24 24 9 23 -22z m1216 11 c-1 -10 -8
-17 -14 -15 -6 1 -11 -3 -11 -10 0 -6 -3 -8 -7 -5 -3 4 2 16 12 27 22 24 24
25 20 3z m-1059 -120 c-1 -1 -14 -4 -30 -7 -16 -3 -25 -2 -22 2 4 3 -10 12
-31 19 l-38 12 40 -4 c29 -3 35 -2 20 5 -11 5 -33 9 -50 10 -29 1 -29 1 -11
15 15 11 16 15 5 16 -10 0 -10 2 -1 6 6 2 12 11 12 19 0 9 4 12 10 9 5 -3 18
-2 27 4 15 9 22 2 45 -47 14 -31 25 -58 24 -59z m990 80 c-11 -11 -17 4 -9 23
7 18 8 18 11 1 2 -10 1 -21 -2 -24z m-712 5 c-3 -5 0 -15 6 -23 15 -18 -1 -20
-18 -3 -16 16 -15 35 3 35 8 0 12 -4 9 -9z m256 -4 c0 -8 -4 -12 -10 -9 -5 3
-10 10 -10 16 0 5 5 9 10 9 6 0 10 -7 10 -16z m565 6 c3 -5 1 -10 -4 -10 -6 0
-11 5 -11 10 0 6 2 10 4 10 3 0 8 -4 11 -10z m-955 -15 c7 -9 8 -15 2 -15 -5
0 -12 7 -16 15 -3 8 -4 15 -2 15 2 0 9 -7 16 -15z m933 -9 c4 -11 1 -13 -10
-9 -11 4 -14 2 -9 -5 4 -7 2 -12 -5 -12 -6 0 -35 -14 -63 -31 -39 -25 -47 -27
-32 -10 16 17 103 81 112 81 1 0 4 -7 7 -14z m42 -22 c-27 -22 -88 -54 -104
-54 -3 0 23 18 59 40 75 46 87 49 45 14z m-1065 13 c0 -2 -9 -12 -20 -22 -24
-21 -27 -14 -4 9 15 15 24 20 24 13z m161 -37 c20 0 80 -50 73 -61 -8 -13 -63
-1 -82 17 -11 12 -11 14 0 14 8 0 19 -5 26 -12 6 -6 15 -9 18 -5 4 4 -8 13
-27 21 -39 16 -73 49 -62 60 4 4 15 -2 24 -13 10 -12 23 -21 30 -21z m-111 -5
c-10 -12 -10 -15 4 -15 24 0 19 -18 -6 -23 -20 -4 -19 -4 5 -6 15 0 27 4 27 9
0 6 9 1 20 -10 11 -11 27 -20 35 -20 8 0 15 -4 15 -10 0 -5 -5 -10 -12 -10 -6
0 -9 -3 -6 -6 3 -3 15 0 26 7 15 9 25 9 50 -2 17 -7 28 -17 25 -22 -3 -5 4 -6
17 -2 15 5 20 4 16 -4 -4 -6 0 -11 11 -11 10 0 25 -5 33 -11 23 -16 -67 0
-110 19 -19 9 -50 14 -68 13 -18 -1 -44 4 -57 13 -30 20 -35 20 -35 1 0 -8 -5
-15 -11 -15 -5 0 -7 5 -4 10 12 19 -12 10 -31 -12 -10 -12 -13 -18 -6 -14 7 4
12 1 12 -9 0 -8 -10 -20 -22 -24 -20 -8 -28 -3 -57 30 -18 22 -54 51 -80 65
-25 13 -35 22 -21 18 14 -3 35 -13 48 -21 21 -13 29 -12 85 15 34 16 71 37 82
46 25 20 31 20 15 1z m-444 -34 c65 -38 101 -44 90 -14 -7 17 -9 18 76 -30
110 -63 120 -89 50 -135 -45 -29 -86 -68 -170 -161 -39 -44 -40 -45 -65 -28
-13 9 -35 33 -48 53 -20 33 -23 49 -21 133 2 99 12 221 17 221 2 0 34 -18 71
-39z m1094 9 c-12 -8 -10 -10 7 -10 16 0 21 4 17 15 -9 22 9 18 23 -5 8 -12 9
-21 3 -25 -6 -4 -8 -11 -5 -16 10 -15 -7 -10 -29 9 -20 16 -20 16 -7 0 16 -21
11 -22 -24 -6 -14 6 -25 18 -25 26 0 9 3 13 6 9 4 -3 13 1 21 9 9 8 18 12 21
9 4 -3 0 -10 -8 -15z m-160 -4 c0 -3 -4 -8 -10 -11 -5 -3 -10 -1 -10 4 0 6 5
11 10 11 6 0 10 -2 10 -4z m264 -15 c-12 -9 -24 -26 -26 -37 -5 -17 -6 -17
-12 -2 -8 18 7 40 34 51 25 9 26 7 4 -12z m-304 -11 c-6 -11 -13 -20 -16 -20
-2 0 0 9 6 20 6 11 13 20 16 20 2 0 0 -9 -6 -20z m135 -2 c-6 -17 -4 -20 9
-15 14 6 15 3 5 -16 -11 -19 -10 -20 2 -10 20 17 86 20 101 5 9 -9 5 -12 -18
-12 -32 0 -94 -26 -106 -44 -4 -6 -8 8 -8 32 0 36 -2 41 -14 30 -10 -9 -11
-15 -2 -20 8 -6 8 -8 -1 -8 -7 0 -17 9 -23 20 -9 17 -7 27 3 18 1 -2 13 7 27
20 30 27 33 28 25 0z m295 17 c0 -2 -22 -16 -49 -30 -40 -20 -55 -23 -73 -15
-23 10 -23 10 2 6 15 -3 44 5 70 19 51 27 50 27 50 20z m-1065 -55 c10 -11 16
-20 13 -20 -3 0 -13 9 -23 20 -10 11 -16 20 -13 20 3 0 13 -9 23 -20z m535 10
c0 -5 -2 -10 -4 -10 -3 0 -8 5 -11 10 -3 6 -1 10 4 10 6 0 11 -4 11 -10z m130
-14 c0 -2 -8 -10 -17 -17 -16 -13 -17 -12 -4 4 13 16 21 21 21 13z m561 -68
c-17 -35 -45 -77 -62 -93 l-32 -30 38 70 c73 134 111 170 56 53z m-691 42 c0
-5 -2 -10 -4 -10 -3 0 -8 5 -11 10 -3 6 -1 10 4 10 6 0 11 -4 11 -10z m326
-17 c-41 -21 -103 -47 -94 -38 10 10 101 53 113 54 6 0 -3 -7 -19 -16z m-521
-3 c-3 -5 -21 -10 -38 -10 -24 0 -28 3 -17 10 20 13 63 13 55 0z m288 -9 c-3
-11 -12 -22 -20 -25 -14 -6 -11 5 10 32 13 17 16 15 10 -7z m114 -3 c-2 -7
-10 -12 -16 -10 -6 1 -11 -2 -11 -8 0 -5 -5 -10 -11 -10 -6 0 -19 -10 -30 -22
-25 -30 -24 -11 1 27 11 17 20 26 20 22 0 -4 8 -3 18 2 23 14 35 13 29 -1z
m-287 -7 c0 -5 -9 -11 -20 -14 -13 -3 -18 -11 -14 -20 7 -20 -32 -29 -47 -11
-6 8 -19 14 -28 15 -9 0 -11 3 -4 5 7 3 21 0 33 -6 11 -6 20 -7 19 -3 -5 32 3
43 31 43 17 0 30 -4 30 -9z m125 -1 c3 -6 -4 -10 -17 -10 -18 0 -20 2 -8 10
19 12 18 12 25 0z m275 -19 c-32 -27 -50 -31 -50 -12 0 8 58 39 75 40 5 1 -6
-12 -25 -28z m-290 -34 c0 -23 -2 -22 -19 10 -10 19 -9 22 4 17 8 -4 15 -15
15 -27z m185 23 c-3 -5 -11 -10 -16 -10 -6 0 -7 5 -4 10 3 6 11 10 16 10 6 0
7 -4 4 -10z m-515 -22 c0 -10 -29 -9 -55 2 -16 6 -12 8 18 8 20 -1 37 -5 37
-10z m480 8 c0 -2 -7 -7 -16 -10 -8 -3 -12 -2 -9 4 6 10 25 14 25 6z m-680
-24 c0 -9 -6 -12 -16 -8 -9 4 -24 1 -33 -6 -13 -10 -12 -8 2 8 20 24 47 27 47
6z m280 -18 c20 -20 1 -17 -40 6 l-35 20 30 -6 c17 -4 37 -13 45 -20z m87 -39
c20 -8 34 -18 30 -21 -3 -3 -22 4 -44 15 -45 24 -37 27 14 6z m438 -102 l50
-6 -70 -13 c-96 -18 -106 -17 -112 6 -6 22 -39 28 -45 8 -4 -12 -28 -3 -28 12
0 13 38 16 100 8 30 -5 78 -11 105 -15z m223 -18 c5 0 21 -15 36 -33 16 -18
33 -29 39 -25 7 4 5 -1 -2 -11 -14 -17 -16 -17 -28 1 -11 14 -16 15 -22 5 -6
-10 -10 -10 -21 3 -18 22 -27 19 -35 -12 -10 -42 -23 -54 -45 -41 -23 15 -15
45 15 52 24 6 38 45 24 68 -7 11 -12 11 -31 -1 -22 -13 -22 -13 2 13 l24 27
18 -23 c9 -13 21 -23 26 -23z m-498 31 c0 -3 -4 -8 -10 -11 -5 -3 -10 -1 -10
4 0 6 5 11 10 11 6 0 10 -2 10 -4z m44 -11 c-4 -8 -8 -15 -10 -15 -2 0 -4 7
-4 15 0 8 4 15 10 15 5 0 7 -7 4 -15z m356 -20 c0 -5 -5 -3 -10 5 -7 11 -10
11 -10 2 0 -7 -4 -10 -10 -7 -6 4 -5 11 3 19 12 14 27 4 27 -19z m-359 -23
c-7 -2 -18 1 -23 6 -8 8 -4 9 13 5 13 -4 18 -8 10 -11z m109 -47 c0 -7 -11
-15 -25 -17 -18 -4 -25 -1 -25 11 0 10 9 17 25 17 14 1 25 -4 25 -11z m-305
-25 c10 -11 24 -20 32 -20 7 0 13 -4 13 -10 0 -24 -54 -1 -70 30 -14 26 2 26
25 0z m76 -98 c7 -17 5 -20 -9 -15 -30 11 -34 15 -21 24 11 7 10 12 -6 25 -19
15 -19 16 4 2 13 -8 28 -24 32 -36z m-75 -9 c-10 -10 -35 18 -29 33 4 12 8 11
20 -6 8 -12 12 -24 9 -27z m206 -30 c-3 -33 -8 -43 -22 -43 -24 0 -34 49 -11
58 9 3 20 12 24 19 13 21 14 13 9 -34z m5 -91 c7 -12 8 -24 2 -33 -6 -9 -9
-10 -9 -2 0 7 -7 10 -17 6 -13 -5 -15 -2 -10 11 4 10 7 22 7 27 0 15 14 10 27
-9z m-458 -36 c-2 -2 -31 -15 -64 -30 -33 -14 -52 -25 -42 -26 19 0 23 -15 6
-25 -13 -9 -16 -6 -24 26 -6 24 -3 27 47 42 52 15 85 21 77 13z m11 -36 c0
-13 -65 -31 -85 -24 -14 6 -9 11 26 25 43 16 59 16 59 -1z m410 -16 c0 -8 -5
-12 -10 -9 -6 4 -8 11 -5 16 9 14 15 11 15 -7z m-400 -23 c0 -12 -29 -23 -42
-15 -6 4 -5 10 3 15 18 11 39 11 39 0z m389 -58 c0 17 7 27 16 27 8 0 15 5 15
12 0 6 3 9 6 5 9 -9 21 -126 12 -121 -4 3 -8 12 -8 20 0 8 -3 14 -7 14 -5 0
-8 -14 -7 -31 0 -17 -7 -47 -18 -67 -10 -20 -18 -42 -18 -48 0 -13 -32 -14
-41 0 -4 5 -3 21 1 35 4 15 13 67 21 116 12 83 14 87 20 50 5 -30 7 -33 8 -12z
m-499 27 c0 -5 -4 -10 -10 -10 -5 0 -10 5 -10 10 0 6 5 10 10 10 6 0 10 -4 10
-10z m609 -183 c1 -5 -3 -5 -9 -2 -5 3 -10 16 -9 28 0 21 1 21 9 2 5 -11 9
-24 9 -28z m-42 11 c-3 -8 -6 -5 -6 6 -1 11 2 17 5 13 3 -3 4 -12 1 -19z m-11
-20 c4 -7 3 -8 -4 -4 -8 5 -12 0 -12 -13 0 -11 -4 -23 -10 -26 -12 -8 -13 -3
0 29 11 29 15 31 26 14z"/>
<path d="M882 2283 c-15 -21 -18 -33 -10 -44 8 -11 9 -11 4 4 -3 9 -2 17 2 17
10 0 35 41 29 47 -3 2 -14 -9 -25 -24z"/>
<path d="M1162 2300 c-54 -8 -61 -16 -54 -63 l4 -39 44 5 c47 4 56 -4 43 -39
-9 -26 -3 -34 25 -35 20 0 20 -1 -1 -11 -14 -7 -23 -20 -23 -35 0 -19 5 -23
28 -23 19 0 29 -5 29 -15 0 -8 -6 -15 -14 -15 -21 0 -15 -37 9 -54 12 -9 17
-16 11 -16 -6 0 -18 6 -26 14 -12 13 -17 11 -35 -11 -12 -15 -19 -30 -16 -34
3 -5 0 -18 -6 -29 -8 -15 -8 -20 1 -20 6 0 9 -7 5 -15 -8 -22 12 -18 24 5 6
11 15 20 19 20 12 0 10 -72 -1 -87 -12 -15 0 -55 14 -47 6 4 8 -1 4 -14 -4
-11 0 -37 8 -57 9 -21 14 -40 12 -44 -3 -4 3 -20 14 -36 10 -15 16 -33 14 -40
-3 -6 2 -18 11 -25 13 -11 15 -8 15 23 0 30 3 34 19 30 10 -3 28 0 40 6 19 11
21 9 21 -14 0 -15 4 -24 10 -20 5 3 7 12 3 20 -3 8 0 15 6 15 6 0 11 9 11 21
0 14 5 19 14 16 11 -4 14 2 11 29 -3 39 6 49 34 34 11 -5 22 -6 25 -2 7 11
-23 70 -40 76 -17 6 -17 1 -4 -25 9 -16 7 -19 -9 -19 -30 0 -32 13 -13 73 14
42 16 54 5 50 -10 -4 -11 2 -7 25 4 17 1 32 -5 36 -6 4 -11 16 -11 27 0 20
-41 44 -71 40 -11 -1 -18 8 -22 29 -4 16 -11 30 -17 30 -6 0 -8 -5 -4 -12 5
-7 2 -9 -9 -5 -9 3 -18 1 -21 -6 -3 -7 -3 -2 -1 10 3 12 2 24 -3 27 -13 8 -5
84 11 100 13 14 16 14 21 0 3 -9 6 -27 6 -41 0 -46 25 -18 28 32 4 53 -14 99
-35 91 -8 -4 -13 3 -13 18 0 13 -6 28 -12 33 -19 15 -76 20 -126 13z m72 -355
c-4 -8 -14 -15 -23 -15 -14 1 -13 3 3 15 25 19 27 19 20 0z m146 -124 c0 -5
-7 -11 -14 -14 -8 -3 -20 -24 -26 -46 -10 -37 -70 -119 -70 -96 0 6 -3 21 -7
34 -4 17 -3 22 6 17 9 -6 11 5 7 45 -3 29 -3 56 0 61 7 11 104 10 104 -1z"/>
<path d="M724 2271 c15 -6 9 -11 -33 -29 -28 -11 -58 -19 -65 -16 -20 8 -29
-12 -16 -36 17 -32 28 -110 20 -141 -10 -35 7 -44 40 -19 18 14 21 21 13 32
-8 10 -7 16 3 26 15 13 21 5 37 -53 4 -11 5 -5 3 14 -3 29 -1 31 9 18 13 -18
35 -23 35 -8 0 4 -11 17 -25 27 -30 23 -31 30 -6 37 14 3 23 -3 31 -24 7 -16
16 -29 21 -29 13 0 6 -32 -14 -60 -9 -13 -17 -29 -17 -35 0 -5 4 -3 10 5 5 8
11 12 14 10 2 -3 -5 -16 -17 -30 -14 -18 -18 -20 -14 -6 6 14 4 17 -9 12 -8
-3 -18 -6 -20 -6 -12 0 -1 -29 19 -48 20 -19 28 -21 55 -11 22 8 33 19 37 41
4 18 15 32 26 35 10 3 19 10 19 16 0 6 2 8 5 5 3 -2 -2 -38 -9 -79 -8 -40 -12
-76 -9 -79 4 -5 48 -9 135 -13 51 -3 63 -17 38 -45 -11 -11 -20 -27 -20 -34 0
-9 3 -9 11 2 8 12 10 10 5 -10 -4 -22 -4 -23 8 -7 7 9 19 17 26 17 14 0 39 29
40 44 0 6 -6 2 -13 -9 -8 -10 -19 -15 -26 -11 -17 11 5 47 24 40 16 -7 45 12
45 28 0 5 -6 8 -12 7 -36 -4 -45 4 -61 53 -11 34 -13 56 -7 62 13 13 13 29 0
21 -5 -3 -10 3 -10 14 0 11 -5 31 -11 45 -10 21 -17 24 -58 21 -25 -2 -49 -3
-54 -4 -4 -1 -12 -13 -18 -28 -6 -16 -13 -23 -16 -16 -2 6 4 24 13 40 l18 28
-33 -30 c-18 -16 -29 -23 -26 -14 4 10 0 19 -10 22 -8 4 -20 18 -25 32 -5 14
-17 25 -27 25 -15 0 -16 2 -3 10 12 8 13 13 3 29 -7 11 -10 26 -7 34 6 17 -13
69 -29 79 -7 4 -23 7 -37 7 -21 0 -22 -1 -6 -8z"/>
<path d="M842 2228 c-16 -16 -15 -25 7 -47 17 -17 20 -17 23 -3 2 10 -1 27 -7
39 -9 17 -14 20 -23 11z"/>
<path d="M394 2166 c2 -34 15 -100 29 -148 14 -47 27 -110 28 -140 2 -65 8
-90 19 -83 4 3 6 -5 2 -17 -4 -16 -2 -19 8 -13 9 5 11 4 6 -3 -8 -14 44 -163
55 -156 4 2 10 -3 13 -12 4 -10 2 -13 -7 -8 -9 6 -9 4 1 -8 7 -9 12 -20 11
-24 -2 -5 3 -29 10 -53 7 -24 10 -52 8 -62 -5 -20 17 -27 28 -9 3 6 1 10 -4
10 -6 0 -11 4 -11 8 0 5 6 9 14 9 9 0 12 -9 9 -29 -2 -15 -1 -28 4 -29 55 -7
84 -6 89 3 5 7 1 9 -9 5 -23 -9 -21 6 2 27 17 16 18 16 18 -1 0 -40 2 -42 33
-30 53 20 30 57 -35 56 -55 -1 -72 -10 -70 -36 1 -13 -2 -23 -6 -23 -12 0 -19
16 -11 24 9 10 11 67 2 61 -11 -7 -22 24 -13 37 4 7 1 8 -7 3 -10 -6 -12 -4
-7 9 4 9 3 15 -2 12 -5 -3 -12 1 -15 10 -3 9 -2 12 4 9 6 -4 3 10 -7 30 -12
25 -22 34 -32 30 -12 -5 -13 -3 -4 6 14 14 -3 72 -19 63 -6 -4 -8 2 -3 16 5
17 4 21 -5 15 -9 -5 -11 -4 -6 4 4 6 3 17 -2 24 -9 10 -42 123 -42 141 0 4 9
2 21 -5 19 -10 20 -9 13 13 -8 24 -7 91 2 121 4 13 0 20 -14 24 -23 6 -33 35
-37 111 -4 62 -5 63 -39 66 -24 3 -25 2 -22 -58z"/>
<path d="M932 2160 c-7 -11 -19 -20 -28 -20 -13 0 -14 -3 -4 -15 6 -8 9 -19 6
-24 -4 -6 2 -8 13 -6 11 2 22 -3 25 -12 4 -9 9 -13 13 -10 3 4 0 14 -8 23 -11
13 -11 18 -1 21 13 5 17 63 4 63 -4 0 -13 -9 -20 -20z"/>
<path d="M880 2160 c0 -5 9 -10 20 -10 11 0 20 5 20 10 0 6 -9 10 -20 10 -11
0 -20 -4 -20 -10z"/>
<path d="M1363 2102 c-1 -10 5 -19 12 -19 10 0 11 5 4 19 -5 10 -11 18 -12 18
-2 0 -3 -8 -4 -18z"/>
<path d="M520 2081 c0 -12 5 -21 10 -21 6 0 10 6 10 14 0 8 -4 18 -10 21 -5 3
-10 -3 -10 -14z"/>
<path d="M1397 2074 c-3 -4 -2 -14 3 -23 5 -10 5 -23 -1 -32 -12 -19 -12 -36
1 -23 6 6 12 27 13 47 3 35 -2 45 -16 31z"/>
<path d="M297 2025 c9 -19 18 -33 21 -31 4 5 -26 66 -33 66 -3 0 3 -16 12 -35z"/>
<path d="M1058 2025 c2 -14 6 -25 8 -25 2 0 4 11 4 25 0 14 -4 25 -9 25 -4 0
-6 -11 -3 -25z"/>
<path d="M1200 2016 c0 -22 3 -27 11 -19 8 8 8 16 0 30 -9 16 -10 14 -11 -11z"/>
<path d="M583 2012 c-30 -4 -29 -19 4 -70 30 -47 35 -49 57 -27 8 8 19 15 25
15 6 0 11 6 11 14 0 8 7 17 16 20 9 4 14 9 11 13 -4 3 -2 12 3 18 22 26 -27 9
-52 -18 -23 -24 -30 -27 -47 -17 -24 12 -29 35 -6 26 16 -6 19 3 7 19 -4 6
-17 9 -29 7z"/>
<path d="M1546 2003 c-6 -15 -8 -15 -16 -3 -8 12 -10 11 -11 -5 -1 -11 -1 -24
0 -29 1 -5 -4 -13 -11 -18 -9 -7 -5 -8 12 -4 14 3 30 6 36 6 6 0 10 14 9 30
-2 37 -10 47 -19 23z"/>
<path d="M1080 1989 c0 -5 5 -7 10 -4 6 3 10 8 10 11 0 2 -4 4 -10 4 -5 0 -10
-5 -10 -11z"/>
<path d="M354 1908 c34 -78 145 -294 145 -285 1 12 -157 337 -163 337 -3 0 5
-24 18 -52z"/>
<path d="M1115 1950 c3 -5 8 -10 11 -10 2 0 4 5 4 10 0 6 -5 10 -11 10 -5 0
-7 -4 -4 -10z"/>
<path d="M1460 1918 c0 -13 4 -29 9 -37 13 -20 24 4 17 35 -8 30 -26 32 -26 2z"/>
<path d="M773 1821 c3 -12 -1 -21 -9 -23 -10 -2 -11 -7 -3 -18 8 -11 12 -12
15 -3 3 7 12 9 20 6 17 -6 17 -2 2 32 -13 29 -33 34 -25 6z"/>
<path d="M1475 1819 c-4 -11 -4 -23 -1 -26 3 -4 6 -1 6 6 0 7 4 10 9 7 5 -4 7
3 4 14 -7 25 -10 25 -18 -1z"/>
<path d="M1030 1804 c0 -8 5 -12 10 -9 6 4 8 11 5 16 -9 14 -15 11 -15 -7z"/>
<path d="M850 1808 c0 -11 30 -78 35 -78 3 0 -2 17 -10 37 -15 36 -25 52 -25
41z"/>
<path d="M992 1770 c0 -14 2 -19 5 -12 2 6 2 18 0 25 -3 6 -5 1 -5 -13z"/>
<path d="M582 1762 c2 -4 11 -28 22 -54 11 -27 23 -45 29 -41 6 4 8 0 4 -11
-4 -10 -3 -15 3 -11 12 7 33 -33 26 -50 -3 -8 -1 -17 5 -20 5 -4 18 -23 29
-43 l19 -37 -4 35 c-6 49 -32 105 -83 178 -38 54 -61 79 -50 54z"/>
<path d="M1210 1717 c0 -14 5 -38 12 -52 16 -35 29 -11 16 29 -15 44 -28 55
-28 23z"/>
<path d="M1480 1665 c0 -8 2 -15 4 -15 2 0 6 7 10 15 3 8 1 15 -4 15 -6 0 -10
-7 -10 -15z"/>
<path d="M460 1560 c0 -19 3 -21 12 -12 9 9 9 15 0 24 -9 9 -12 7 -12 -12z"/>
<path d="M495 1551 c-3 -5 0 -22 7 -38 16 -37 15 -36 27 -29 7 5 7 15 -1 31
-6 13 -16 22 -21 18 -6 -4 -8 0 -4 10 7 18 2 23 -8 8z"/>
<path d="M1277 1521 c-3 -12 1 -22 9 -25 16 -6 18 12 5 32 -6 11 -9 9 -14 -7z"/>
<path d="M824 1422 c4 -7 0 -22 -8 -34 -9 -12 -16 -33 -16 -45 0 -13 -5 -23
-12 -23 -6 0 -3 -6 8 -14 17 -13 20 -12 30 5 5 11 14 16 18 12 5 -4 5 2 2 14
-4 13 -8 37 -8 53 -1 17 -6 33 -11 37 -6 3 -7 1 -3 -5z"/>
<path d="M730 1346 c0 -3 9 -10 20 -16 11 -6 20 -8 20 -6 0 3 -9 10 -20 16
-11 6 -20 8 -20 6z"/>
<path d="M931 1334 c0 -11 3 -14 6 -6 3 7 2 16 -1 19 -3 4 -6 -2 -5 -13z"/>
<path d="M968 1343 c7 -3 16 -2 19 1 4 3 -2 6 -13 5 -11 0 -14 -3 -6 -6z"/>
<path d="M920 1289 c0 -5 5 -7 10 -4 6 3 10 8 10 11 0 2 -4 4 -10 4 -5 0 -10
-5 -10 -11z"/>
<path d="M946 1087 c3 -10 9 -15 12 -12 3 3 0 11 -7 18 -10 9 -11 8 -5 -6z"/>
<path d="M1669 1583 c-13 -16 -12 -17 4 -4 9 7 17 15 17 17 0 8 -8 3 -21 -13z"/>
<path d="M1639 1543 c-13 -16 -12 -17 4 -4 9 7 17 15 17 17 0 8 -8 3 -21 -13z"/>
<path d="M1609 1503 c-13 -16 -12 -17 4 -4 9 7 17 15 17 17 0 8 -8 3 -21 -13z"/>
<path d="M1790 1595 c-7 -9 -8 -15 -2 -15 5 0 12 7 16 15 3 8 4 15 2 15 -2 0
-9 -7 -16 -15z"/>
<path d="M1754 1538 l-29 -33 33 29 c30 28 37 36 29 36 -2 0 -16 -15 -33 -32z"/>
<path d="M1424 1319 c-19 -22 -19 -22 4 -8 12 8 22 17 22 21 0 12 -6 9 -26
-13z"/>
<path d="M1355 1245 c-21 -25 -42 -42 -48 -38 -5 3 -7 1 -3 -5 3 -5 -6 -25
-20 -44 -14 -18 -3 -9 24 20 31 33 53 49 57 42 8 -13 35 6 34 24 0 7 -2 6 -6
-2 -2 -6 -9 -9 -14 -6 -6 3 -4 16 6 30 25 39 9 28 -30 -21z"/>
<path d="M1460 1250 c-8 -5 -10 -10 -5 -10 6 0 17 5 25 10 8 5 11 10 5 10 -5
0 -17 -5 -25 -10z"/>
<path d="M651 1091 c-8 -5 -9 -11 -3 -15 5 -3 12 1 16 9 6 17 6 18 -13 6z"/>
<path d="M0 2137 c0 -23 3 -26 23 -18 12 4 29 6 37 3 13 -5 13 -3 1 12 -8 9
-20 15 -26 12 -7 -2 -18 1 -24 7 -8 8 -11 4 -11 -16z"/>
<path d="M80 2125 c0 -1 11 -10 25 -19 19 -13 23 -13 19 -2 -4 12 -44 31 -44
21z"/>
<path d="M828 783 c6 -2 18 -2 25 0 6 3 1 5 -13 5 -14 0 -19 -2 -12 -5z"/>
<path d="M848 753 c7 -3 16 -2 19 1 4 3 -2 6 -13 5 -11 0 -14 -3 -6 -6z"/>
<path d="M812 681 c-51 -6 -55 -8 -67 -41 -7 -19 -16 -44 -20 -55 -7 -17 -4
-16 21 6 16 15 48 38 71 52 23 15 44 31 48 37 3 5 5 9 3 8 -2 -1 -27 -4 -56
-7z"/>
<path d="M450 636 c0 -2 8 -10 18 -17 15 -13 16 -12 3 4 -13 16 -21 21 -21 13z"/>
</g>
</svg>
